<?xml version="1.0" encoding="UTF-8"?>
<svg xmlns="http://www.w3.org/2000/svg" width="800" height="600" viewBox="0 0 800 600">
  <defs>
    <linearGradient id="bg" x1="0%" y1="0%" x2="100%" y2="100%">
      <stop offset="0%" style="stop-color:#1A3C34;stop-opacity:1" />
      <stop offset="100%" style="stop-color:#043D1A;stop-opacity:1" />
    </linearGradient>
  </defs>
  <rect width="800" height="600" fill="url(#bg)" rx="16"/>
  <circle cx="400" cy="220" r="100" fill="rgba(255,255,255,0.12)"/>
  <path d="M20.25 14.15v4.25c0 1.094-.787 2.036-1.872 2.18-2.087.277-4.216.42-6.378.42s-4.291-.143-6.378-.42c-1.085-.144-1.872-1.086-1.872-2.18v-4.25m16.5 0a2.18 2.18 0 00.75-1.661V8.706c0-1.081-.768-2.015-1.837-2.175a48.114 48.114 0 00-3.413-.387m-9.75 0a48.114 48.114 0 00-4.838.388 2.18 2.18 0 00-1.837 2.175v3.783c0 1.082.768 2.015 1.837 2.175 1.003.133 2.015.246 3.038.324" transform="translate(330,150) scale(1.3)" fill="rgba(255,255,255,0.9)"/>
  <text x="400" y="420" font-family="Figtree,sans-serif" font-size="32" font-weight="bold" fill="white" text-anchor="middle" opacity="0.9">Documents Business</text>
  <text x="400" y="455" font-family="Figtree,sans-serif" font-size="16" fill="rgba(255,255,255,0.6)" text-anchor="middle">Boutique Digitale DZ</text>
  <rect x="360" y="475" width="80" height="3" rx="1.5" fill="rgba(255,255,255,0.3)"/>
</svg>