<?xml version="1.0" encoding="UTF-8"?>
<svg xmlns="http://www.w3.org/2000/svg" width="800" height="600" viewBox="0 0 800 600">
  <defs>
    <linearGradient id="bg" x1="0%" y1="0%" x2="100%" y2="100%">
      <stop offset="0%" style="stop-color:#D32F2F;stop-opacity:1" />
      <stop offset="100%" style="stop-color:#043D1A;stop-opacity:1" />
    </linearGradient>
  </defs>
  <rect width="800" height="600" fill="url(#bg)" rx="16"/>
  <circle cx="400" cy="220" r="100" fill="rgba(255,255,255,0.12)"/>
  <path d="M15.75 10.5l4.72-4.72a.75.75 0 011.28.53v11.38a.75.75 0 01-1.28.53l-4.72-4.72M4.5 18.75h9.75a2.25 2.25 0 002.25-2.25V7.5a2.25 2.25 0 00-2.25-2.25H4.5A2.25 2.25 0 002.25 7.5v9a2.25 2.25 0 002.25 2.25z" transform="translate(330,150) scale(1.3)" fill="rgba(255,255,255,0.9)"/>
  <text x="400" y="420" font-family="Figtree,sans-serif" font-size="32" font-weight="bold" fill="white" text-anchor="middle" opacity="0.9">Mini-Cours</text>
  <text x="400" y="455" font-family="Figtree,sans-serif" font-size="16" fill="rgba(255,255,255,0.6)" text-anchor="middle">Boutique Digitale DZ</text>
  <rect x="360" y="475" width="80" height="3" rx="1.5" fill="rgba(255,255,255,0.3)"/>
</svg>