<?xml version="1.0" encoding="UTF-8"?>
<svg xmlns="http://www.w3.org/2000/svg" width="800" height="600" viewBox="0 0 800 600">
  <defs>
    <linearGradient id="bg" x1="0%" y1="0%" x2="100%" y2="100%">
      <stop offset="0%" style="stop-color:#0B7A35;stop-opacity:1" />
      <stop offset="100%" style="stop-color:#043D1A;stop-opacity:1" />
    </linearGradient>
  </defs>
  <rect width="800" height="600" fill="url(#bg)" rx="16"/>
  <circle cx="400" cy="220" r="100" fill="rgba(255,255,255,0.12)"/>
  <path d="M19.5 14.25v-2.625a3.375 3.375 0 00-3.375-3.375h-1.5A1.125 1.125 0 0113.5 7.125v-1.5a3.375 3.375 0 00-3.375-3.375H8.25m0 12.75h7.5m-7.5 3H12M10.5 2.25H5.625c-.621 0-1.125.504-1.125 1.125v17.25c0 .621.504 1.125 1.125 1.125h12.75c.621 0 1.125-.504 1.125-1.125V11.25a9 9 0 00-9-9z" transform="translate(330,150) scale(1.3)" fill="rgba(255,255,255,0.9)"/>
  <text x="400" y="420" font-family="Figtree,sans-serif" font-size="32" font-weight="bold" fill="white" text-anchor="middle" opacity="0.9">CV & Lettres</text>
  <text x="400" y="455" font-family="Figtree,sans-serif" font-size="16" fill="rgba(255,255,255,0.6)" text-anchor="middle">Boutique Digitale DZ</text>
  <rect x="360" y="475" width="80" height="3" rx="1.5" fill="rgba(255,255,255,0.3)"/>
</svg>