<?xml version="1.0" encoding="UTF-8"?>
<svg xmlns="http://www.w3.org/2000/svg" width="800" height="600" viewBox="0 0 800 600">
  <defs>
    <linearGradient id="bg" x1="0%" y1="0%" x2="100%" y2="100%">
      <stop offset="0%" style="stop-color:#0B7A35;stop-opacity:1" />
      <stop offset="100%" style="stop-color:#043D1A;stop-opacity:1" />
    </linearGradient>
  </defs>
  <rect width="800" height="600" fill="url(#bg)" rx="16"/>
  <circle cx="400" cy="220" r="100" fill="rgba(255,255,255,0.12)"/>
  <path d="M12 6.042A8.967 8.967 0 006 3.75c-1.052 0-2.062.18-3 .512v14.25A8.987 8.987 0 016 18c2.305 0 4.408.867 6 2.292m0-14.25a8.966 8.966 0 016-2.292c1.052 0 2.062.18 3 .512v14.25A8.987 8.987 0 0018 18a8.967 8.967 0 00-6 2.292m0-14.25v14.25" transform="translate(330,150) scale(1.3)" fill="rgba(255,255,255,0.9)"/>
  <text x="400" y="420" font-family="Figtree,sans-serif" font-size="32" font-weight="bold" fill="white" text-anchor="middle" opacity="0.9">Ebooks</text>
  <text x="400" y="455" font-family="Figtree,sans-serif" font-size="16" fill="rgba(255,255,255,0.6)" text-anchor="middle">Boutique Digitale DZ</text>
  <rect x="360" y="475" width="80" height="3" rx="1.5" fill="rgba(255,255,255,0.3)"/>
</svg>