<?xml version="1.0" encoding="UTF-8"?>
<svg xmlns="http://www.w3.org/2000/svg" width="800" height="600" viewBox="0 0 800 600">
  <defs>
    <linearGradient id="bg" x1="0%" y1="0%" x2="100%" y2="100%">
      <stop offset="0%" style="stop-color:#1A3C34;stop-opacity:1" />
      <stop offset="100%" style="stop-color:#043D1A;stop-opacity:1" />
    </linearGradient>
  </defs>
  <rect width="800" height="600" fill="url(#bg)" rx="16"/>
  <circle cx="400" cy="220" r="100" fill="rgba(255,255,255,0.12)"/>
  <path d="M4.26 10.147a60.438 60.438 0 0 0-.491 6.347A48.627 48.627 0 0 1 12 20.904a48.627 48.627 0 0 1 8.232-4.41 60.46 60.46 0 0 0-.491-6.347m-15.482 0a50.57 50.57 0 0 0-2.658-.813A59.905 59.905 0 0 1 12 3.493a59.902 59.902 0 0 1 10.399 5.84c-.896.248-1.783.52-2.658.814m-15.482 0A50.697 50.697 0 0 1 12 13.489a50.702 50.702 0 0 1 7.74-3.342" transform="translate(330,150) scale(1.3)" fill="rgba(255,255,255,0.9)"/>
  <text x="400" y="420" font-family="Figtree,sans-serif" font-size="32" font-weight="bold" fill="white" text-anchor="middle" opacity="0.9">Packs Éducatifs</text>
  <text x="400" y="455" font-family="Figtree,sans-serif" font-size="16" fill="rgba(255,255,255,0.6)" text-anchor="middle">Boutique Digitale DZ</text>
  <rect x="360" y="475" width="80" height="3" rx="1.5" fill="rgba(255,255,255,0.3)"/>
</svg>